<?xml version="1.0" standalone="no"?>
<!DOCTYPE svg PUBLIC "-//W3C//DTD SVG 20010904//EN"
 "http://www.w3.org/TR/2001/REC-SVG-20010904/DTD/svg10.dtd">
<svg version="1.0" xmlns="http://www.w3.org/2000/svg"
 width="484.000000pt" height="134.000000pt" viewBox="0 0 484.000000 134.000000"
 preserveAspectRatio="xMidYMid meet">
<metadata>
Created by potrace 1.16, written by Peter Selinger 2001-2019
</metadata>
<g transform="translate(0.000000,134.000000) scale(0.100000,-0.100000)"
fill="#000000" stroke="none">
<path d="M320 945 c-102 -107 -191 -195 -197 -195 -19 0 -16 -27 4 -34 13 -5
14 -9 5 -15 -9 -6 -9 -13 1 -34 10 -23 18 -27 43 -25 29 3 48 -12 186 -142 84
-80 163 -153 175 -164 24 -20 6 -32 224 151 15 12 28 4 110 -64 52 -43 102
-84 111 -91 15 -12 41 8 233 189 118 112 215 206 215 209 0 3 -90 97 -199 210
l-198 204 -89 -69 c-49 -38 -107 -83 -129 -101 l-40 -33 -129 100 c-71 54
-131 99 -135 99 -3 0 -89 -88 -191 -195z m279 -13 l74 -67 -87 -67 -87 -66 86
-72 85 -72 -56 -62 c-32 -33 -61 -62 -65 -64 -4 -2 -63 49 -131 113 -156 148
-159 157 -86 234 131 138 183 191 188 191 3 0 38 -30 79 -68z m526 -24 c50
-51 108 -112 129 -135 l38 -41 -98 -94 c-55 -52 -121 -114 -147 -138 l-48 -43
-59 58 c-33 33 -60 62 -60 66 0 3 38 38 85 77 l85 71 -85 66 -86 67 73 69 c40
37 75 68 78 69 3 0 46 -42 95 -92z"/>
<path d="M1778 1033 c-34 -38 -170 -238 -197 -290 -11 -23 -21 -48 -21 -56 0
-8 17 -34 38 -58 21 -24 49 -60 63 -79 13 -20 57 -77 98 -128 72 -90 75 -92
117 -92 50 0 74 8 74 24 0 18 -61 103 -159 221 -50 61 -91 115 -91 120 0 12
104 169 165 249 25 33 45 62 45 65 0 9 -77 51 -93 51 -7 0 -25 -12 -39 -27z"/>
<path d="M2065 1044 c-16 -8 -33 -20 -36 -26 -4 -7 10 -46 31 -87 20 -42 57
-121 81 -176 l43 -100 6 -155 5 -154 45 -13 c73 -21 74 -21 67 128 -7 152 -5
158 100 393 l67 149 -29 23 c-63 50 -84 35 -136 -99 -17 -45 -38 -95 -46 -110
l-14 -29 -54 117 c-50 108 -78 155 -94 155 -3 0 -19 -7 -36 -16z"/>
<path d="M4645 1048 c-16 -4 -84 -7 -150 -6 -66 2 -126 -1 -132 -5 -16 -10
-17 -44 -2 -86 11 -31 14 -33 58 -31 25 2 72 2 104 1 l59 -1 -41 -76 c-23 -42
-72 -147 -110 -233 -38 -86 -76 -169 -84 -184 -17 -32 -13 -59 12 -81 13 -12
41 -14 169 -9 l152 6 10 36 c22 79 8 91 -105 91 -75 0 -76 1 -69 23 14 45 108
255 166 370 42 85 58 128 56 150 -2 18 -7 31 -13 31 -5 -1 -19 2 -30 6 -11 4
-33 3 -50 -2z"/>
<path d="M2781 1037 c-27 -13 -65 -118 -117 -322 -14 -55 -42 -152 -63 -215
-56 -167 -55 -165 -23 -164 15 0 41 4 59 8 30 7 34 13 59 90 l27 83 41 -27
c23 -16 53 -31 69 -34 22 -5 29 -2 36 17 9 23 38 53 45 46 8 -10 46 -135 46
-154 0 -24 18 -45 38 -45 8 0 29 7 48 16 44 21 43 35 -2 166 -19 57 -45 132
-56 168 -19 61 -102 277 -133 348 -16 34 -35 40 -74 19z m108 -450 c1 -4 -12
-1 -29 8 -33 17 -66 20 -75 5 -3 -5 -14 -14 -23 -19 -15 -8 -12 10 18 116 l35
126 37 -114 c20 -63 37 -117 37 -122z"/>
<path d="M3537 1043 c-4 -3 -7 -92 -7 -197 0 -116 -4 -186 -9 -181 -5 6 -48
87 -96 182 -47 95 -90 175 -95 178 -5 3 -30 0 -56 -6 l-47 -12 6 -316 c4 -174
10 -326 13 -338 7 -25 26 -28 84 -16 l33 6 -5 179 c-3 98 -3 178 -2 178 15 0
146 -294 133 -298 -12 -5 -12 -32 0 -32 5 0 11 5 13 12 3 7 7 6 11 -5 3 -9 2
-17 -3 -17 -16 0 -11 -26 6 -41 15 -12 16 -11 10 9 -5 13 -3 22 3 22 6 0 11
-4 11 -10 0 -14 53 -13 85 2 l25 11 0 338 c0 324 -1 339 -19 349 -22 11 -84
14 -94 3z"/>
<path d="M4041 1018 c-52 -25 -75 -31 -124 -29 l-60 2 9 -188 c5 -103 8 -240
6 -303 -2 -63 0 -130 3 -149 6 -32 8 -33 43 -27 20 4 48 9 62 11 21 3 123 38
204 71 15 6 17 14 12 48 -4 23 -15 49 -27 58 -19 16 -23 16 -72 -4 -98 -39
-97 -40 -97 36 l0 67 85 39 c47 21 85 44 85 49 0 6 -7 29 -16 51 -19 47 -38
51 -109 19 -56 -25 -67 -17 -63 44 3 37 4 38 98 80 105 47 113 58 86 121 -19
45 -38 45 -125 4z"/>
</g>
</svg>
